<mxfile host="app.diagrams.net" modified="2020-09-18T02:41:00.746Z" agent="5.0 (Windows NT 10.0; Win64; x64) AppleWebKit/537.36 (KHTML, like Gecko) Chrome/85.0.4183.102 Safari/537.36" etag="PROkqYL7WnMPQBWvpO3N" version="13.7.3" type="github">
  <diagram id="QV5yhvARNIt89ldhzEQS" name="Page-1">
    <mxGraphModel dx="782" dy="738" grid="1" gridSize="10" guides="1" tooltips="1" connect="1" arrows="1" fold="1" page="1" pageScale="1" pageWidth="827" pageHeight="1169" math="0" shadow="0">
      <root>
        <mxCell id="0" />
        <mxCell id="1" parent="0" />
        <mxCell id="028t2qpXYjsF1yHO4Z3Y-12" style="edgeStyle=orthogonalEdgeStyle;rounded=0;orthogonalLoop=1;jettySize=auto;html=1;entryX=0;entryY=0.5;entryDx=0;entryDy=0;" parent="1" source="028t2qpXYjsF1yHO4Z3Y-2" target="028t2qpXYjsF1yHO4Z3Y-10" edge="1">
          <mxGeometry relative="1" as="geometry" />
        </mxCell>
        <mxCell id="028t2qpXYjsF1yHO4Z3Y-2" value="Int" style="rounded=1;whiteSpace=wrap;html=1;" parent="1" vertex="1">
          <mxGeometry x="70" y="20" width="120" height="60" as="geometry" />
        </mxCell>
        <mxCell id="028t2qpXYjsF1yHO4Z3Y-16" style="edgeStyle=orthogonalEdgeStyle;rounded=0;orthogonalLoop=1;jettySize=auto;html=1;entryX=0.5;entryY=0;entryDx=0;entryDy=0;" parent="1" source="028t2qpXYjsF1yHO4Z3Y-3" target="028t2qpXYjsF1yHO4Z3Y-6" edge="1">
          <mxGeometry relative="1" as="geometry">
            <mxPoint x="630" y="150" as="targetPoint" />
            <Array as="points">
              <mxPoint x="680" y="115" />
              <mxPoint x="130" y="115" />
            </Array>
          </mxGeometry>
        </mxCell>
        <mxCell id="028t2qpXYjsF1yHO4Z3Y-3" value="Se definen los pines&amp;nbsp; 2, 4 y 7 como salidas" style="rounded=1;whiteSpace=wrap;html=1;" parent="1" vertex="1">
          <mxGeometry x="570" y="20" width="120" height="60" as="geometry" />
        </mxCell>
        <mxCell id="028t2qpXYjsF1yHO4Z3Y-11" style="edgeStyle=orthogonalEdgeStyle;rounded=0;orthogonalLoop=1;jettySize=auto;html=1;" parent="1" source="028t2qpXYjsF1yHO4Z3Y-5" target="028t2qpXYjsF1yHO4Z3Y-3" edge="1">
          <mxGeometry relative="1" as="geometry" />
        </mxCell>
        <mxCell id="028t2qpXYjsF1yHO4Z3Y-5" value="Loop" style="rounded=1;whiteSpace=wrap;html=1;" parent="1" vertex="1">
          <mxGeometry x="400" y="20" width="120" height="60" as="geometry" />
        </mxCell>
        <mxCell id="028t2qpXYjsF1yHO4Z3Y-20" style="edgeStyle=orthogonalEdgeStyle;rounded=0;orthogonalLoop=1;jettySize=auto;html=1;entryX=0;entryY=0.5;entryDx=0;entryDy=0;" parent="1" source="028t2qpXYjsF1yHO4Z3Y-6" target="028t2qpXYjsF1yHO4Z3Y-18" edge="1">
          <mxGeometry relative="1" as="geometry" />
        </mxCell>
        <mxCell id="028t2qpXYjsF1yHO4Z3Y-6" value="Loop" style="rounded=1;whiteSpace=wrap;html=1;" parent="1" vertex="1">
          <mxGeometry x="70" y="140" width="120" height="60" as="geometry" />
        </mxCell>
        <mxCell id="028t2qpXYjsF1yHO4Z3Y-15" style="edgeStyle=orthogonalEdgeStyle;rounded=0;orthogonalLoop=1;jettySize=auto;html=1;entryX=0;entryY=0.5;entryDx=0;entryDy=0;" parent="1" source="028t2qpXYjsF1yHO4Z3Y-10" target="028t2qpXYjsF1yHO4Z3Y-5" edge="1">
          <mxGeometry relative="1" as="geometry" />
        </mxCell>
        <mxCell id="028t2qpXYjsF1yHO4Z3Y-10" value="Se declaran las variables a usar en cada pin" style="rounded=1;whiteSpace=wrap;html=1;" parent="1" vertex="1">
          <mxGeometry x="230" y="20" width="120" height="60" as="geometry" />
        </mxCell>
        <mxCell id="028t2qpXYjsF1yHO4Z3Y-28" style="edgeStyle=orthogonalEdgeStyle;rounded=0;orthogonalLoop=1;jettySize=auto;html=1;" parent="1" source="028t2qpXYjsF1yHO4Z3Y-17" edge="1">
          <mxGeometry relative="1" as="geometry">
            <mxPoint x="130" y="260" as="targetPoint" />
            <Array as="points">
              <mxPoint x="620" y="220" />
              <mxPoint x="130" y="220" />
              <mxPoint x="130" y="240" />
            </Array>
          </mxGeometry>
        </mxCell>
        <mxCell id="028t2qpXYjsF1yHO4Z3Y-17" value="Apago Luz pin 7" style="rounded=1;whiteSpace=wrap;html=1;" parent="1" vertex="1">
          <mxGeometry x="560" y="140" width="120" height="60" as="geometry" />
        </mxCell>
        <mxCell id="028t2qpXYjsF1yHO4Z3Y-21" style="edgeStyle=orthogonalEdgeStyle;rounded=0;orthogonalLoop=1;jettySize=auto;html=1;entryX=0;entryY=0.5;entryDx=0;entryDy=0;" parent="1" source="028t2qpXYjsF1yHO4Z3Y-18" target="028t2qpXYjsF1yHO4Z3Y-19" edge="1">
          <mxGeometry relative="1" as="geometry" />
        </mxCell>
        <mxCell id="028t2qpXYjsF1yHO4Z3Y-18" value="Enciendo Luz 1 y Luz E" style="rounded=1;whiteSpace=wrap;html=1;" parent="1" vertex="1">
          <mxGeometry x="230" y="140" width="120" height="60" as="geometry" />
        </mxCell>
        <mxCell id="028t2qpXYjsF1yHO4Z3Y-22" style="edgeStyle=orthogonalEdgeStyle;rounded=0;orthogonalLoop=1;jettySize=auto;html=1;entryX=0;entryY=0.5;entryDx=0;entryDy=0;" parent="1" source="028t2qpXYjsF1yHO4Z3Y-19" target="028t2qpXYjsF1yHO4Z3Y-17" edge="1">
          <mxGeometry relative="1" as="geometry" />
        </mxCell>
        <mxCell id="028t2qpXYjsF1yHO4Z3Y-19" value="Delay 500" style="rounded=1;whiteSpace=wrap;html=1;" parent="1" vertex="1">
          <mxGeometry x="400" y="140" width="120" height="60" as="geometry" />
        </mxCell>
        <mxCell id="028t2qpXYjsF1yHO4Z3Y-23" value="Enciendo Luz pin 7" style="rounded=1;whiteSpace=wrap;html=1;" parent="1" vertex="1">
          <mxGeometry x="230" y="140" width="120" height="60" as="geometry" />
        </mxCell>
        <mxCell id="028t2qpXYjsF1yHO4Z3Y-24" value="Delay 4000" style="rounded=1;whiteSpace=wrap;html=1;" parent="1" vertex="1">
          <mxGeometry x="400" y="140" width="120" height="60" as="geometry" />
        </mxCell>
        <mxCell id="028t2qpXYjsF1yHO4Z3Y-31" style="edgeStyle=orthogonalEdgeStyle;rounded=0;orthogonalLoop=1;jettySize=auto;html=1;entryX=0;entryY=0.5;entryDx=0;entryDy=0;" parent="1" source="028t2qpXYjsF1yHO4Z3Y-25" edge="1">
          <mxGeometry relative="1" as="geometry">
            <mxPoint x="400" y="290" as="targetPoint" />
          </mxGeometry>
        </mxCell>
        <mxCell id="028t2qpXYjsF1yHO4Z3Y-25" value="Enciendo Luz pin 4" style="rounded=1;whiteSpace=wrap;html=1;" parent="1" vertex="1">
          <mxGeometry x="230" y="260" width="120" height="60" as="geometry" />
        </mxCell>
        <mxCell id="028t2qpXYjsF1yHO4Z3Y-30" style="edgeStyle=orthogonalEdgeStyle;rounded=0;orthogonalLoop=1;jettySize=auto;html=1;entryX=0;entryY=0.5;entryDx=0;entryDy=0;" parent="1" source="028t2qpXYjsF1yHO4Z3Y-29" target="028t2qpXYjsF1yHO4Z3Y-25" edge="1">
          <mxGeometry relative="1" as="geometry" />
        </mxCell>
        <mxCell id="028t2qpXYjsF1yHO4Z3Y-29" value="Delay 500" style="rounded=1;whiteSpace=wrap;html=1;" parent="1" vertex="1">
          <mxGeometry x="70" y="260" width="120" height="60" as="geometry" />
        </mxCell>
        <mxCell id="cepRIw88IbWqpAstA1OE-3" value="" style="edgeStyle=orthogonalEdgeStyle;rounded=0;orthogonalLoop=1;jettySize=auto;html=1;" parent="1" source="cepRIw88IbWqpAstA1OE-1" target="cepRIw88IbWqpAstA1OE-2" edge="1">
          <mxGeometry relative="1" as="geometry" />
        </mxCell>
        <mxCell id="cepRIw88IbWqpAstA1OE-1" value="Delay 500" style="rounded=1;whiteSpace=wrap;html=1;" parent="1" vertex="1">
          <mxGeometry x="400" y="260" width="120" height="60" as="geometry" />
        </mxCell>
        <mxCell id="spNXiwe6CdlM4EFJ_FbK-2" style="edgeStyle=orthogonalEdgeStyle;rounded=0;orthogonalLoop=1;jettySize=auto;html=1;entryX=0.5;entryY=0;entryDx=0;entryDy=0;" edge="1" parent="1" source="cepRIw88IbWqpAstA1OE-2" target="cepRIw88IbWqpAstA1OE-4">
          <mxGeometry relative="1" as="geometry">
            <mxPoint x="150" y="350" as="targetPoint" />
            <Array as="points">
              <mxPoint x="620" y="340" />
              <mxPoint x="130" y="340" />
            </Array>
          </mxGeometry>
        </mxCell>
        <mxCell id="cepRIw88IbWqpAstA1OE-2" value="Apago Luz pin 4" style="rounded=1;whiteSpace=wrap;html=1;" parent="1" vertex="1">
          <mxGeometry x="560" y="260" width="120" height="60" as="geometry" />
        </mxCell>
        <mxCell id="cepRIw88IbWqpAstA1OE-8" value="" style="edgeStyle=orthogonalEdgeStyle;rounded=0;orthogonalLoop=1;jettySize=auto;html=1;" parent="1" source="cepRIw88IbWqpAstA1OE-4" target="cepRIw88IbWqpAstA1OE-5" edge="1">
          <mxGeometry relative="1" as="geometry" />
        </mxCell>
        <mxCell id="cepRIw88IbWqpAstA1OE-4" value="Delay 500" style="rounded=1;whiteSpace=wrap;html=1;" parent="1" vertex="1">
          <mxGeometry x="70" y="370" width="120" height="60" as="geometry" />
        </mxCell>
        <mxCell id="cepRIw88IbWqpAstA1OE-9" value="" style="edgeStyle=orthogonalEdgeStyle;rounded=0;orthogonalLoop=1;jettySize=auto;html=1;" parent="1" source="cepRIw88IbWqpAstA1OE-5" target="cepRIw88IbWqpAstA1OE-6" edge="1">
          <mxGeometry relative="1" as="geometry" />
        </mxCell>
        <mxCell id="cepRIw88IbWqpAstA1OE-5" value="Enciendo Luz pin 2" style="rounded=1;whiteSpace=wrap;html=1;" parent="1" vertex="1">
          <mxGeometry x="230" y="370" width="120" height="60" as="geometry" />
        </mxCell>
        <mxCell id="cepRIw88IbWqpAstA1OE-10" value="" style="edgeStyle=orthogonalEdgeStyle;rounded=0;orthogonalLoop=1;jettySize=auto;html=1;" parent="1" source="cepRIw88IbWqpAstA1OE-6" target="cepRIw88IbWqpAstA1OE-7" edge="1">
          <mxGeometry relative="1" as="geometry" />
        </mxCell>
        <mxCell id="cepRIw88IbWqpAstA1OE-6" value="Delay 4000" style="rounded=1;whiteSpace=wrap;html=1;" parent="1" vertex="1">
          <mxGeometry x="400" y="370" width="120" height="60" as="geometry" />
        </mxCell>
        <mxCell id="cepRIw88IbWqpAstA1OE-11" style="edgeStyle=orthogonalEdgeStyle;rounded=0;orthogonalLoop=1;jettySize=auto;html=1;entryX=0;entryY=0.5;entryDx=0;entryDy=0;" parent="1" source="cepRIw88IbWqpAstA1OE-7" target="028t2qpXYjsF1yHO4Z3Y-6" edge="1">
          <mxGeometry relative="1" as="geometry">
            <mxPoint x="40" y="180" as="targetPoint" />
            <Array as="points">
              <mxPoint x="620" y="487" />
              <mxPoint x="40" y="487" />
              <mxPoint x="40" y="170" />
            </Array>
          </mxGeometry>
        </mxCell>
        <mxCell id="cepRIw88IbWqpAstA1OE-7" value="Apago Luz pin 2" style="rounded=1;whiteSpace=wrap;html=1;" parent="1" vertex="1">
          <mxGeometry x="560" y="370" width="120" height="60" as="geometry" />
        </mxCell>
      </root>
    </mxGraphModel>
  </diagram>
</mxfile>
